# xmcd
# 
# Track frame offsets:
#     150
#     20625
#     38775
#     56762
#     74517
#     90690
#     110492
#     127742
#     148965
#     166627
# 
# Disc length: 2472
# 
# Revision: 3
# Processed by: cddbd v1.5.2PL0 Copyright (c) Steve Scherf et al.
# Submitted via: fre:ac v1.0.31
# 
DISCID=8909a60a
DTITLE=Suicide - Why Be Blue ?
DYEAR=1992
DGENRE=Punk Rock
TTITLE0=Why be blue
TTITLE1=Cheat-cheat
TTITLE2=Hot ticket
TTITLE3=Universe
TTITLE4=Last time
TTITLE5=Play the dream
TTITLE6=Pump it
TTITLE7=Flashy love
TTITLE8=Chewy-chewy
TTITLE9=Mujo
EXTD=
EXTT0=
EXTT1=
EXTT2=
EXTT3=
EXTT4=
EXTT5=
EXTT6=
EXTT7=
EXTT8=
EXTT9=
PLAYORDER=
